<svg width="512" height="512" viewBox="0 0 512 512" fill="none" xmlns="http://www.w3.org/2000/svg" xmlns:xlink="http://www.w3.org/1999/xlink"><rect id="_r_8_" width="512" height="512" x="0" y="0" rx="128" fill="url(#_r_9_)" stroke="#FFFFFF" stroke-width="0" stroke-opacity="100%" paint-order="stroke"></rect><clipPath id="clip"><use xlink:href="#_r_8_"></use></clipPath><defs><radialGradient id="_r_9_" cx="50%" cy="50%" r="100%" fx="50%" fy="0%" gradientUnits="objectBoundingBox"><stop stop-color="#ffbb00"></stop><stop offset="1" stop-color="#ffe74b"></stop></radialGradient><radialGradient id="_r_a_" cx="0" cy="0" r="1" gradientUnits="userSpaceOnUse" gradientTransform="translate(256) rotate(90) scale(512)"><stop stop-color="white"></stop><stop offset="1" stop-color="white" stop-opacity="0"></stop></radialGradient></defs><svg xmlns="http://www.w3.org/2000/svg" height="352" viewBox="0 -960 960 960" width="352" fill="#000000" x="80" y="80" alignment-baseline="middle" style="color: rgb(42, 26, 0); width: 352px; height: 352px;"><path d="M240-200v40q0 17-11.5 28.5T200-120h-40q-17 0-28.5-11.5T120-160v-320l84-240q6-18 21.5-29t34.5-11h100v-80h240v80h100q19 0 34.5 11t21.5 29l84 240v320q0 17-11.5 28.5T800-120h-40q-17 0-28.5-11.5T720-160v-40H240Zm-8-360h496l-42-120H274l-42 120Zm-32 80v200-200Zm100 160q25 0 42.5-17.5T360-380q0-25-17.5-42.5T300-440q-25 0-42.5 17.5T240-380q0 25 17.5 42.5T300-320Zm360 0q25 0 42.5-17.5T720-380q0-25-17.5-42.5T660-440q-25 0-42.5 17.5T600-380q0 25 17.5 42.5T660-320Zm-460 40h560v-200H200v200Z"></path></svg></svg>